<?xml version="1.0" standalone="no"?>
<!DOCTYPE svg PUBLIC "-//W3C//DTD SVG 20010904//EN"
 "http://www.w3.org/TR/2001/REC-SVG-20010904/DTD/svg10.dtd">
<svg version="1.0" xmlns="http://www.w3.org/2000/svg"
 width="260.000000pt" height="260.000000pt" viewBox="0 0 260.000000 260.000000"
 preserveAspectRatio="xMidYMid meet">
<metadata>
Created by potrace 1.14, written by Peter Selinger 2001-2017
</metadata>
<g transform="translate(0.000000,260.000000) scale(0.100000,-0.100000)"
fill="#000000" stroke="none">
<path d="M1090 2176 c-261 -61 -416 -208 -439 -415 -28 -263 86 -401 404 -490
61 -16 164 -42 230 -56 148 -31 204 -49 278 -88 104 -54 147 -123 147 -232 -2
-176 -133 -280 -370 -292 -132 -7 -228 9 -317 52 -132 63 -194 153 -218 318
l-6 38 -102 -3 -102 -3 3 -50 c8 -150 54 -256 151 -356 158 -160 441 -226 723
-169 175 36 299 108 375 218 57 82 75 134 80 237 11 193 -58 321 -227 418 -62
36 -196 78 -385 121 -209 48 -307 81 -357 119 -69 54 -82 79 -86 165 -3 69 -1
83 25 132 59 112 156 155 348 154 99 0 129 -4 175 -22 124 -50 187 -122 218
-251 l17 -71 103 0 102 0 0 28 c0 100 -57 250 -124 329 -53 61 -146 119 -239
149 -68 22 -105 27 -217 30 -87 2 -154 -1 -190 -10z"/>
</g>
</svg>
